<?xml version="1.0" encoding="utf-8"?>
<!-- Generator: Adobe Illustrator 19.0.0, SVG Export Plug-In . SVG Version: 6.00 Build 0)  -->
<svg version="1.1" id="Layer_1" xmlns="http://www.w3.org/2000/svg" xmlns:xlink="http://www.w3.org/1999/xlink" x="0px" y="0px"
	 viewBox="-354.3 387.6 143.3 19.6" style="enable-background:new -354.3 387.6 143.3 19.6;" xml:space="preserve">
<style type="text/css">
	.st0{fill:#FFFFFF;}
</style>
<title>Asset 4</title>
<g id="Layer_2">
	<g id="Layer_1-2">
		<path class="st0" d="M-300.4,398.6L-300.4,398.6c-0.3-0.5-0.8-0.9-1.3-1.1l-1.1-0.4c0.7-0.2,1.4-0.7,1.8-1.3
			c0.5-0.7,0.8-1.6,0.8-2.5c0.1-1.2-0.4-2.4-1.4-3.2c-1.1-0.8-2.4-1.2-3.8-1.2h-9.3V406h9.1c1.1,0.1,2.1,0,3.1-0.4
			c0.7-0.2,1.3-0.6,1.8-1.2c0.4-0.5,0.7-1,0.9-1.6c0.1-0.5,0.1-1.1,0-1.7c0.1-0.5,0.1-0.9,0-1.4C-299.8,399.4-300.1,399-300.4,398.6
			z M-313.1,390.2h8.7c0.5,0,0.9,0.2,1.3,0.4c0.3,0.3,0.6,0.6,0.7,1c0.3,0.5,0.4,1.1,0.4,1.7c0,0.6-0.1,1.2-0.5,1.8
			c-0.3,0.4-0.7,0.7-1.1,0.9c-0.4,0.2-0.9,0.3-1.3,0.4h-8.3V390.2z M-301.6,403.2c-0.3,0.5-0.8,0.8-1.3,1.1c-0.5,0.2-1,0.3-1.5,0.4
			h-8.7v-6.8h8.9c0.5,0.1,1,0.2,1.5,0.4c0.5,0.2,0.9,0.6,1.2,1c0.3,0.6,0.5,1.2,0.5,1.9C-301.1,401.9-301.3,402.6-301.6,403.2
			L-301.6,403.2z"/>
		<path class="st0" d="M-273.3,388.8h-1.5l-7.8,17.2l0,0c-0.2-0.4-0.3-0.9-0.3-1.3c0-0.6,0-1.7,0-3.2c0-0.9-0.3-1.8-0.9-2.5
			c-0.4-0.5-1-0.9-1.7-1.1c0.8-0.3,1.5-0.8,1.9-1.4c0.6-0.8,0.9-1.8,0.9-2.8c0-0.8-0.1-1.6-0.5-2.3c-0.4-0.7-0.9-1.3-1.7-1.7
			c-0.6-0.4-1.2-0.6-1.8-0.8c-0.8-0.1-1.6-0.1-2.4,0h-8.7v17h1.5v-7.6h7.3c0.7-0.1,1.4-0.1,2.1,0c0.4,0.1,0.8,0.3,1.2,0.5
			c0.4,0.3,0.7,0.7,0.9,1.1c0.1,0.6,0.1,1.2,0,1.8c0,1.4,0,2.3,0,2.9c0,0.4,0.1,0.8,0.4,1.2h3.1l2.5-5.3h9l2.8,5.3h1.7l-8-17.1
			L-273.3,388.8z M-287.5,397h-8.5v-6.8h7.4h1.7c0.5,0.1,0.9,0.3,1.4,0.5c0.4,0.3,0.7,0.7,0.9,1.1c0.2,0.5,0.4,1,0.4,1.5
			c0,0.7-0.2,1.4-0.5,2c-0.3,0.5-0.7,0.9-1.2,1.1C-286.5,396.8-287,396.9-287.5,397z M-277.9,399.3l3.9-8.5l3.9,8.5H-277.9z"/>
		<polygon class="st0" points="-250.7,403.8 -262.9,388.9 -263,388.8 -264.7,388.8 -264.7,406.2 -263.2,406.2 -263.2,391.1 
			-250.9,406.1 -250.9,406.2 -249.2,406.2 -249.2,388.8 -250.7,388.8 		"/>
		<path class="st0" d="M-233.2,390.7c-0.7-0.6-1.6-1.1-2.5-1.4c-1-0.3-2-0.4-3-0.4h-8.1V406h7.9c2.2,0.1,4.4-0.7,5.9-2.4
			c1.4-1.8,2.1-4,2-6.3c0-1.3-0.2-2.7-0.6-4C-231.8,392.4-232.4,391.4-233.2,390.7z M-234.1,403c-1.2,1.2-2.8,1.9-4.5,1.8h-6.6
			v-14.6h6.4c0.9,0,1.8,0.1,2.7,0.4c0.8,0.3,1.4,0.7,2,1.3c0.6,0.6,1,1.4,1.3,2.2c0.3,1.1,0.5,2.2,0.5,3.3
			C-232.2,399.5-232.8,401.4-234.1,403L-234.1,403z"/>
		<polygon class="st0" points="-218.9,388.3 -221,388.3 -224.8,392.1 -223.2,392.1 		"/>
		<path class="st0" d="M-217.6,401.8c-0.1,0.4-0.3,0.8-0.5,1.1c-0.2,0.4-0.5,0.7-0.8,1c-0.4,0.4-0.9,0.6-1.4,0.8
			c-0.7,0.3-1.4,0.4-2.2,0.4c-1.5,0-2.9-0.5-4-1.4c-1-0.9-1.5-2.2-1.5-3.6h12.3l0,0c0.1-1.8-0.6-3.6-1.8-5c-1.3-1.3-3.2-2-5.1-1.9
			c-1.1,0-2.2,0.2-3.2,0.6c-0.8,0.4-1.6,0.9-2.2,1.7c-0.5,0.6-0.9,1.3-1.2,2.1c-0.2,0.7-0.4,1.4-0.4,2.2c-0.1,1.8,0.6,3.6,1.9,4.9
			c1.4,1.3,3.2,1.9,5.1,1.8c1.5,0.1,2.9-0.3,4.1-1.1c1.2-0.8,2-2,2.4-3.4l0,0h-1.5L-217.6,401.8z M-226.3,395.9
			c1-0.8,2.3-1.3,3.6-1.2c1.3,0,2.6,0.4,3.6,1.1c1,0.8,1.6,1.9,1.7,3.2H-228c0.2-1.2,0.8-2.3,1.7-3.2L-226.3,395.9z"/>
		<path class="st0" d="M-340.8,388.9h-8.8V406h8.9c4.7,0,7.4-3.3,7.4-8.9C-333.2,391.5-335.9,388.9-340.8,388.9z M-340.8,403.6h-5.8
			v-11.8h5.4c3.4,0,5.1,1.9,5.1,5.9S-337.8,403.6-340.8,403.6z"/>
		<path class="st0" d="M-318,404.1c-0.6,0-0.8,0-0.8-0.8v-6.7c0-2.4-2.1-3.7-5.9-3.7s-5.9,1.4-6.4,4.5l0,0h2.7l0,0
			c0-1.5,1.3-2.2,3.6-2.2s3.4,0.5,3.4,1.8s-0.5,1.1-1.9,1.2l-2.5,0.3c-4.2,0.5-5.9,1.6-5.9,4.1c0,1.2,0.5,4,5.3,4
			c1.9,0.1,3.7-0.6,5.1-1.7c0.5,1.2,1.4,1.2,2.4,1.2h1.9l0,0v-2h-0.8V404.1z M-321.5,401c0,1.8-2,3.2-4.7,3.2
			c-1.6,0-2.7-0.7-2.7-1.7s0.6-1.5,2.6-1.8l2.7-0.6c0.7,0.1,1.4,0.1,2.1,0L-321.5,401z"/>
	</g>
</g>
</svg>
